sa<?xml version="1.0" encoding="UTF-8"?>
<svg width="32" height="32" viewBox="0 0 32 32" fill="none" xmlns="http://www.w3.org/2000/svg">
    <defs>
        <linearGradient id="gradient" x1="0%" y1="0%" x2="100%" y2="100%">
            <stop offset="0%" style="stop-color:#6B46C1"/>
            <stop offset="100%" style="stop-color:#4299E1"/>
        </linearGradient>
    </defs>
    <path d="M16 0C7.163 0 0 7.163 0 16s7.163 16 16 16 16-7.163 16-16S24.837 0 16 0zm0 28c-6.627 0-12-5.373-12-12S9.373 4 16 4s12 5.373 12 12-5.373 12-12 12z" fill="url(#gradient)"/>
    <path d="M22 11h-3v-1.5c0-1.655-1.345-3-3-3h-2c-1.655 0-3 1.345-3 3V11H8c-.552 0-1 .448-1 1v9c0 .552.448 1 1 1h14c.552 0 1-.448 1-1v-9c0-.552-.448-1-1-1zm-9-1.5c0-.827.673-1.5 1.5-1.5h2c.827 0 1.5.673 1.5 1.5V11h-5v-1.5zm9 10.5H8v-8h14v8z" fill="url(#gradient)"/>
    <path d="M16 14c-1.655 0-3 1.345-3 3s1.345 3 3 3 3-1.345 3-3-1.345-3-3-3zm0 4c-.552 0-1-.448-1-1s.448-1 1-1 1 .448 1 1-.448 1-1 1z" fill="url(#gradient)"/>
</svg> 